<svg width="34" height="24" viewBox="0 0 34 24" fill="none" xmlns="http://www.w3.org/2000/svg">
<path d="M31.4375 0H2.5625C2.01549 0 1.49089 0.223109 1.10409 0.620245C0.717298 1.01738 0.5 1.55601 0.5 2.11765L0.5 21.8824C0.5 22.444 0.717298 22.9826 1.10409 23.3798C1.49089 23.7769 2.01549 24 2.5625 24H31.4375C31.9845 24 32.5091 23.7769 32.8959 23.3798C33.2827 22.9826 33.5 22.444 33.5 21.8824V2.11765C33.5 1.55601 33.2827 1.01738 32.8959 0.620245C32.5091 0.223109 31.9845 0 31.4375 0ZM30.9975 1.41176L17 12.5224L3.0025 1.41176H30.9975ZM1.875 21.5929V2.30118L12.4694 10.7082L1.875 21.5929ZM2.84438 22.5882L13.5625 11.5835L16.5737 13.9765C16.694 14.0715 16.8414 14.123 16.9931 14.123C17.1448 14.123 17.2923 14.0715 17.4125 13.9765L20.4375 11.5835L31.1556 22.5882H2.84438ZM32.125 21.5929L21.5306 10.7082L32.125 2.30118V21.5929Z" fill="white"/>
</svg>
