<svg width="17" height="18" viewBox="0 0 17 18" fill="none" xmlns="http://www.w3.org/2000/svg">
<path d="M6.61599 6.43766V9.38248C5.90727 9.61007 5.2057 9.77559 4.55425 10.0583C2.80033 10.8101 2.87192 12.6583 3.51622 13.6652C4.36812 15.0032 6.31532 15.417 7.51801 14.4997C8.51309 13.748 8.73501 12.6583 8.74217 11.5204C8.74933 8.44455 8.74217 5.37559 8.73501 2.29973C8.73501 1.548 8.73501 0.796277 8.73501 0.00317383H11.799C12.1498 2.42386 13.4384 3.98938 16.1372 4.21007V7.05145C15.3784 7.1549 14.6482 7.07214 13.9395 6.81007C13.2451 6.548 12.5721 6.23766 11.8491 5.93421C11.8491 6.12042 11.8491 6.29283 11.8491 6.46524C11.8276 8.3549 11.8634 10.2514 11.7775 12.1342C11.663 14.6652 9.88042 16.9756 7.5538 17.7066C3.91711 18.8377 0.888924 16.4997 0.280423 13.5273C-0.220695 11.0721 0.473712 8.98248 2.68579 7.51352C3.83836 6.748 5.16275 6.46524 6.60883 6.41697L6.61599 6.43766Z" fill="#FFFAF3"/>
</svg>
