<svg width="73" height="56" viewBox="0 0 73 56" fill="none" xmlns="http://www.w3.org/2000/svg">
<path d="M13.9855 0.00119321C13.8294 -0.000609904 13.673 -0.000369426 13.5167 0.00191452V0.00155387C12.0876 0.0217488 10.6022 0.239205 9.16424 0.625432C17.0267 0.928356 22.1081 3.35451 23.7887 7.69509C14.7015 3.6507 1.62059 3.54239 0.807617 23.7062C1.51023 20.7987 2.65549 18.5783 4.11536 16.9137C4.33457 24.1495 10.1409 35.3447 23.2656 39.9253C1.97084 26.0679 5.15177 -1.01733 32.3195 20.3794C29.6733 20.7699 27.2189 21.9686 25.2685 23.8453C31.4311 24.2114 37.2244 27.7664 42.5913 34.242C40.6046 32.9652 36.6163 33.7414 34.67 34.7274C39.8381 36.3727 43.8059 40.3306 44.2452 44.4308C44.6457 48.1729 45.7138 50.6826 47.9343 52.1894C50.4075 54.5178 54.1007 56 58.2178 56C64.9622 56 70.5709 52.0235 71.5372 46.8625C73.6387 39.6648 70.4649 28.7198 65.1373 22.1815C64.9365 26.2392 63.7007 27.9823 61.394 29.8752C62.1252 24.4111 60.6517 19.9514 55.7357 14.5572C55.2891 17.069 54.8107 19.5794 52.254 20.6565C49.6673 14.9293 41.5826 8.97795 33.7995 3.81382C36.3483 7.24696 39.1408 10.631 39.8058 14.9038C33.2306 8.09046 23.8202 0.112626 13.9855 0.00119321ZM46.9382 24.135C48.3905 24.135 49.5684 25.0726 49.5684 26.2292C49.5684 27.3859 48.3905 28.3235 46.9381 28.3235C45.4854 28.3235 44.3082 27.3859 44.3082 26.2292C44.3082 25.0728 45.4856 24.135 46.9382 24.135ZM54.5939 25.5041C56.4362 25.5041 57.9294 26.6933 57.9294 28.1601C57.9294 29.6269 56.4363 30.8159 54.5942 30.8159C52.7521 30.8159 51.259 29.627 51.259 28.1601C51.259 26.6933 52.7517 25.5041 54.5939 25.5041ZM49.1665 31.5229C50.7442 31.5229 52.0923 32.3012 52.6418 33.4013C53.5483 32.6118 54.852 32.1163 56.3014 32.1163C59.0384 32.1163 61.2577 33.8833 61.2577 36.0627C61.2577 36.4257 61.1947 36.7772 61.0795 37.1111C65.5769 38.1024 68.8635 41.3731 68.8635 45.2772C68.8635 49.9721 64.1137 53.7537 58.2179 53.7537C52.3221 53.7537 47.5724 49.9719 47.5724 45.2773C47.5724 42.3642 49.4025 39.8033 52.1997 38.2788C51.8397 37.8572 51.5792 37.3775 51.446 36.8609C50.815 37.2479 50.0246 37.4787 49.1664 37.4787C47.1011 37.4787 45.4269 36.1456 45.4269 34.5012C45.4269 32.8565 47.1011 31.5233 49.1664 31.5233L49.1665 31.5229ZM65.6301 32.4892C67.0824 32.4892 68.26 33.4268 68.26 34.5834C68.26 35.7401 67.0824 36.6777 65.6301 36.6777C64.1774 36.6777 62.9997 35.7401 62.9997 34.5834C62.9997 33.427 64.1774 32.4892 65.6301 32.4892Z" fill="#8C4E34"/>
</svg>
