<svg width="20" height="14" viewBox="0 0 20 14" fill="none" xmlns="http://www.w3.org/2000/svg">
<path fill-rule="evenodd" clip-rule="evenodd" d="M7.65028 9.8688V4.13101L12.619 7.00007L7.65028 9.8688ZM18.726 2.39642C18.5061 1.57368 17.8581 0.925528 17.0352 0.705594C15.5436 0.30603 9.56277 0.30603 9.56277 0.30603C9.56277 0.30603 3.58207 0.30603 2.09055 0.705594C1.26765 0.925528 0.619655 1.57368 0.399721 2.39642C0 3.88809 0 6.99991 0 6.99991C0 6.99991 0 10.1119 0.399721 11.6034C0.619655 12.4261 1.26765 13.0744 2.09055 13.2942C3.58207 13.6939 9.56277 13.6939 9.56277 13.6939C9.56277 13.6939 15.5436 13.6939 17.0352 13.2942C17.8581 13.0744 18.5061 12.4261 18.726 11.6034C19.1257 10.1119 19.1257 6.99991 19.1257 6.99991C19.1257 6.99991 19.1257 3.88809 18.726 2.39642Z" fill="white"/>
</svg>
